<svg width="228" height="213" viewBox="0 0 228 213" fill="none" xmlns="http://www.w3.org/2000/svg">
<path d="M76.217 151.444L115.866 82.4477L155.794 151.283L76.217 151.444Z" stroke="white" stroke-width="16"/>
<path d="M30.2669 163.335L105.119 32.9139L105.055 1.39713L100.853 1.40561L58.454 75.0305L59.5119 78.7054L25.4864 137.08L22.86 137.086L0.356755 178.628L0.363114 181.78L30.2669 163.335Z" fill="white"/>
<path d="M184.699 183.969L34.325 184.356L7.0625 200.169L9.17096 203.804L94.1316 203.711L96.7851 200.957L164.352 201.236L165.67 203.508L212.898 202.225L215.625 200.644L184.699 183.969Z" fill="white"/>
<path d="M197.413 161.846L122.035 31.7286L121.971 0.211826L126.174 0.203348L168.87 73.6566L167.827 77.3357L202.087 135.573L204.714 135.567L227.384 177.019L227.391 180.171L197.413 161.846Z" fill="white"/>
</svg>
